<svg xmlns="http://www.w3.org/2000/svg" xmlns:xlink="http://www.w3.org/1999/xlink" width="300" zoomAndPan="magnify" viewBox="0 0 224.87999 225" height="300" preserveAspectRatio="xMidYMid meet" version="1.0"><defs><clipPath id="id1"><path d="M 3.714844 3.777344 L 221.101562 3.777344 L 221.101562 220 L 3.714844 220 Z M 3.714844 3.777344 " clip-rule="nonzero"/></clipPath><clipPath id="id2"><path d="M 67 46 L 161 46 L 161 221.160156 L 67 221.160156 Z M 67 46 " clip-rule="nonzero"/></clipPath></defs><g clip-path="url(#id1)"><path fill="#1877f2" d="M 221.101562 112.46875 C 221.101562 52.441406 172.4375 3.777344 112.410156 3.777344 C 52.378906 3.777344 3.714844 52.441406 3.714844 112.46875 C 3.714844 166.71875 43.464844 211.6875 95.425781 219.839844 L 95.425781 143.886719 L 67.828125 143.886719 L 67.828125 112.46875 L 95.425781 112.46875 L 95.425781 88.523438 C 95.425781 61.28125 111.652344 46.234375 136.480469 46.234375 C 148.371094 46.234375 160.808594 48.355469 160.808594 48.355469 L 160.808594 75.105469 L 147.105469 75.105469 C 133.601562 75.105469 129.390625 83.484375 129.390625 92.078125 L 129.390625 112.46875 L 159.535156 112.46875 L 154.71875 143.886719 L 129.390625 143.886719 L 129.390625 219.839844 C 181.351562 211.6875 221.101562 166.71875 221.101562 112.46875 " fill-opacity="1" fill-rule="nonzero"/></g><g clip-path="url(#id2)"><path fill="#ffffff" d="M 154.71875 143.886719 L 159.535156 112.46875 L 129.390625 112.46875 L 129.390625 92.078125 C 129.390625 83.484375 133.601562 75.105469 147.105469 75.105469 L 160.808594 75.105469 L 160.808594 48.355469 C 160.808594 48.355469 148.371094 46.234375 136.480469 46.234375 C 111.652344 46.234375 95.425781 61.28125 95.425781 88.523438 L 95.425781 112.46875 L 67.828125 112.46875 L 67.828125 143.886719 L 95.425781 143.886719 L 95.425781 219.839844 C 100.957031 220.707031 106.632812 221.160156 112.410156 221.160156 C 118.1875 221.160156 123.859375 220.707031 129.390625 219.839844 L 129.390625 143.886719 L 154.71875 143.886719 " fill-opacity="1" fill-rule="nonzero"/></g></svg>