<svg xmlns="http://www.w3.org/2000/svg" xmlns:xlink="http://www.w3.org/1999/xlink" width="250" zoomAndPan="magnify" viewBox="0 0 187.5 187.499992" height="250" preserveAspectRatio="xMidYMid meet" version="1.0"><defs><clipPath id="id1"><path d="M 27.433594 12.105469 L 162.660156 12.105469 L 162.660156 178.488281 L 27.433594 178.488281 Z M 27.433594 12.105469 " clip-rule="nonzero"/></clipPath><clipPath id="id2"><path d="M 48 12.105469 L 69.535156 12.105469 L 69.535156 59 L 48 59 Z M 48 12.105469 " clip-rule="nonzero"/></clipPath></defs><g clip-path="url(#id1)"><path fill="#834bf4" d="M 141.855469 178.484375 L 48.238281 178.484375 C 47.554688 178.484375 46.875 178.449219 46.199219 178.382812 C 45.519531 178.316406 44.84375 178.21875 44.175781 178.085938 C 43.507812 177.953125 42.847656 177.785156 42.195312 177.585938 C 41.542969 177.390625 40.902344 177.160156 40.273438 176.902344 C 39.644531 176.640625 39.027344 176.347656 38.429688 176.027344 C 37.828125 175.707031 37.246094 175.355469 36.675781 174.980469 C 36.113281 174.601562 35.5625 174.195312 35.039062 173.761719 C 34.511719 173.332031 34.007812 172.875 33.523438 172.390625 C 33.042969 171.910156 32.585938 171.40625 32.15625 170.878906 C 31.71875 170.351562 31.316406 169.804688 30.9375 169.242188 C 30.558594 168.675781 30.207031 168.089844 29.886719 167.492188 C 29.566406 166.890625 29.277344 166.273438 29.011719 165.648438 C 28.753906 165.015625 28.523438 164.375 28.328125 163.722656 C 28.128906 163.074219 27.960938 162.414062 27.828125 161.746094 C 27.695312 161.074219 27.597656 160.402344 27.53125 159.722656 C 27.464844 159.046875 27.433594 158.367188 27.433594 157.683594 L 27.433594 53.703125 C 27.433594 52.417969 27.847656 51.289062 28.683594 50.316406 L 59.894531 13.921875 C 60.386719 13.34375 60.976562 12.898438 61.667969 12.582031 C 62.355469 12.265625 63.078125 12.105469 63.839844 12.105469 L 141.855469 12.105469 C 142.535156 12.105469 143.214844 12.140625 143.894531 12.207031 C 144.574219 12.277344 145.242188 12.375 145.914062 12.507812 C 146.582031 12.640625 147.242188 12.804688 147.894531 13.003906 C 148.546875 13.203125 149.1875 13.429688 149.816406 13.691406 C 150.445312 13.949219 151.0625 14.242188 151.664062 14.5625 C 152.265625 14.882812 152.847656 15.234375 153.410156 15.613281 C 153.980469 15.988281 154.523438 16.394531 155.050781 16.828125 C 155.578125 17.261719 156.085938 17.71875 156.5625 18.199219 C 157.046875 18.679688 157.503906 19.183594 157.9375 19.710938 C 158.367188 20.238281 158.773438 20.78125 159.152344 21.351562 C 159.53125 21.914062 159.882812 22.5 160.203125 23.097656 C 160.523438 23.699219 160.816406 24.316406 161.074219 24.945312 C 161.335938 25.574219 161.566406 26.214844 161.761719 26.867188 C 161.960938 27.519531 162.125 28.179688 162.257812 28.847656 C 162.390625 29.515625 162.492188 30.1875 162.558594 30.863281 C 162.625 31.542969 162.660156 32.222656 162.660156 32.902344 L 162.660156 157.683594 C 162.660156 158.367188 162.625 159.046875 162.558594 159.722656 C 162.492188 160.402344 162.390625 161.074219 162.257812 161.746094 C 162.125 162.414062 161.960938 163.074219 161.761719 163.722656 C 161.566406 164.375 161.335938 165.015625 161.074219 165.648438 C 160.816406 166.273438 160.523438 166.890625 160.203125 167.492188 C 159.882812 168.089844 159.53125 168.675781 159.152344 169.242188 C 158.773438 169.804688 158.367188 170.351562 157.9375 170.878906 C 157.503906 171.40625 157.046875 171.910156 156.5625 172.390625 C 156.085938 172.875 155.578125 173.332031 155.050781 173.761719 C 154.523438 174.195312 153.980469 174.601562 153.410156 174.980469 C 152.847656 175.355469 152.265625 175.707031 151.664062 176.027344 C 151.0625 176.347656 150.445312 176.640625 149.816406 176.902344 C 149.1875 177.160156 148.546875 177.390625 147.894531 177.585938 C 147.242188 177.785156 146.582031 177.953125 145.914062 178.085938 C 145.242188 178.21875 144.574219 178.316406 143.894531 178.382812 C 143.214844 178.449219 142.535156 178.484375 141.855469 178.484375 Z M 37.835938 55.625 L 37.835938 157.683594 C 37.835938 158.367188 37.902344 159.046875 38.035156 159.714844 C 38.167969 160.382812 38.363281 161.035156 38.628906 161.664062 C 38.886719 162.292969 39.207031 162.894531 39.585938 163.464844 C 39.964844 164.03125 40.398438 164.554688 40.878906 165.039062 C 41.363281 165.519531 41.886719 165.953125 42.453125 166.332031 C 43.023438 166.710938 43.625 167.03125 44.253906 167.292969 C 44.882812 167.554688 45.539062 167.753906 46.203125 167.886719 C 46.875 168.019531 47.550781 168.085938 48.238281 168.085938 L 141.855469 168.085938 C 142.535156 168.085938 143.214844 168.019531 143.882812 167.886719 C 144.554688 167.753906 145.203125 167.554688 145.835938 167.292969 C 146.46875 167.03125 147.066406 166.710938 147.632812 166.332031 C 148.199219 165.953125 148.726562 165.519531 149.210938 165.039062 C 149.695312 164.554688 150.125 164.03125 150.503906 163.464844 C 150.882812 162.894531 151.203125 162.292969 151.464844 161.664062 C 151.726562 161.035156 151.925781 160.382812 152.058594 159.714844 C 152.191406 159.046875 152.257812 158.367188 152.257812 157.683594 L 152.257812 32.902344 C 152.257812 32.222656 152.191406 31.546875 152.058594 30.875 C 151.925781 30.203125 151.726562 29.554688 151.464844 28.925781 C 151.203125 28.292969 150.882812 27.695312 150.503906 27.125 C 150.125 26.558594 149.695312 26.035156 149.210938 25.550781 C 148.726562 25.066406 148.199219 24.636719 147.632812 24.257812 C 147.066406 23.878906 146.46875 23.558594 145.835938 23.296875 C 145.203125 23.035156 144.554688 22.835938 143.882812 22.703125 C 143.214844 22.570312 142.535156 22.503906 141.855469 22.503906 L 66.230469 22.503906 Z M 37.835938 55.625 " fill-opacity="1" fill-rule="nonzero"/></g><g clip-path="url(#id2)"><path fill="#834bf4" d="M 63.839844 58.902344 L 53.4375 58.902344 C 53.097656 58.902344 52.757812 58.867188 52.421875 58.800781 C 52.085938 58.734375 51.761719 58.636719 51.445312 58.507812 C 51.132812 58.375 50.832031 58.214844 50.546875 58.023438 C 50.265625 57.835938 50 57.617188 49.757812 57.378906 C 49.515625 57.132812 49.300781 56.871094 49.109375 56.589844 C 48.921875 56.304688 48.765625 56.007812 48.632812 55.691406 C 48.503906 55.375 48.402344 55.050781 48.335938 54.714844 C 48.269531 54.378906 48.238281 54.042969 48.238281 53.703125 C 48.238281 53.359375 48.269531 53.023438 48.335938 52.6875 C 48.402344 52.351562 48.503906 52.027344 48.632812 51.710938 C 48.765625 51.398438 48.921875 51.097656 49.109375 50.8125 C 49.300781 50.53125 49.515625 50.265625 49.757812 50.023438 C 50 49.785156 50.265625 49.566406 50.546875 49.378906 C 50.832031 49.1875 51.132812 49.03125 51.445312 48.898438 C 51.761719 48.769531 52.085938 48.667969 52.421875 48.601562 C 52.757812 48.535156 53.097656 48.503906 53.4375 48.503906 L 58.640625 48.503906 L 58.640625 17.304688 C 58.640625 16.964844 58.671875 16.628906 58.738281 16.292969 C 58.804688 15.957031 58.90625 15.632812 59.035156 15.316406 C 59.164062 15 59.324219 14.703125 59.511719 14.417969 C 59.703125 14.132812 59.917969 13.871094 60.160156 13.628906 C 60.402344 13.390625 60.664062 13.171875 60.949219 12.984375 C 61.230469 12.792969 61.535156 12.632812 61.847656 12.503906 C 62.164062 12.371094 62.488281 12.273438 62.824219 12.207031 C 63.160156 12.140625 63.496094 12.105469 63.839844 12.105469 C 64.179688 12.105469 64.515625 12.140625 64.851562 12.207031 C 65.1875 12.273438 65.511719 12.371094 65.828125 12.503906 C 66.144531 12.632812 66.445312 12.792969 66.730469 12.984375 C 67.011719 13.171875 67.273438 13.390625 67.515625 13.628906 C 67.757812 13.871094 67.972656 14.132812 68.164062 14.417969 C 68.351562 14.703125 68.515625 15 68.644531 15.316406 C 68.777344 15.632812 68.871094 15.957031 68.9375 16.292969 C 69.007812 16.628906 69.042969 16.964844 69.042969 17.304688 L 69.042969 53.703125 C 69.042969 54.042969 69.007812 54.378906 68.9375 54.714844 C 68.871094 55.050781 68.777344 55.375 68.644531 55.691406 C 68.515625 56.007812 68.351562 56.304688 68.164062 56.589844 C 67.972656 56.871094 67.757812 57.132812 67.515625 57.378906 C 67.273438 57.617188 67.011719 57.835938 66.730469 58.023438 C 66.445312 58.214844 66.144531 58.375 65.828125 58.507812 C 65.511719 58.636719 65.1875 58.734375 64.851562 58.800781 C 64.515625 58.867188 64.179688 58.902344 63.839844 58.902344 Z M 63.839844 58.902344 " fill-opacity="1" fill-rule="nonzero"/></g><path fill="#834bf4" d="M 126.253906 147.285156 L 89.84375 147.285156 C 89.503906 147.285156 89.164062 147.253906 88.828125 147.1875 C 88.492188 147.121094 88.167969 147.019531 87.855469 146.890625 C 87.539062 146.761719 87.238281 146.601562 86.957031 146.414062 C 86.671875 146.222656 86.410156 146.007812 86.167969 145.761719 C 85.925781 145.523438 85.707031 145.261719 85.519531 144.976562 C 85.328125 144.695312 85.171875 144.390625 85.039062 144.078125 C 84.910156 143.761719 84.808594 143.4375 84.742188 143.101562 C 84.675781 142.769531 84.644531 142.429688 84.644531 142.085938 C 84.644531 141.746094 84.675781 141.410156 84.742188 141.074219 C 84.808594 140.738281 84.910156 140.414062 85.039062 140.097656 C 85.171875 139.78125 85.328125 139.484375 85.519531 139.199219 C 85.707031 138.914062 85.925781 138.652344 86.167969 138.410156 C 86.410156 138.171875 86.671875 137.953125 86.957031 137.765625 C 87.238281 137.578125 87.539062 137.414062 87.855469 137.285156 C 88.167969 137.152344 88.492188 137.058594 88.828125 136.988281 C 89.164062 136.921875 89.503906 136.886719 89.84375 136.886719 L 126.253906 136.886719 C 126.59375 136.886719 126.929688 136.921875 127.265625 136.988281 C 127.601562 137.058594 127.925781 137.152344 128.242188 137.285156 C 128.558594 137.414062 128.855469 137.578125 129.140625 137.765625 C 129.425781 137.953125 129.6875 138.171875 129.929688 138.410156 C 130.167969 138.652344 130.386719 138.914062 130.574219 139.199219 C 130.765625 139.484375 130.925781 139.78125 131.058594 140.097656 C 131.1875 140.414062 131.285156 140.738281 131.351562 141.074219 C 131.417969 141.410156 131.453125 141.746094 131.453125 142.085938 C 131.453125 142.429688 131.417969 142.769531 131.351562 143.101562 C 131.285156 143.4375 131.1875 143.761719 131.058594 144.078125 C 130.925781 144.390625 130.765625 144.695312 130.574219 144.976562 C 130.386719 145.261719 130.167969 145.523438 129.929688 145.761719 C 129.6875 146.007812 129.425781 146.222656 129.140625 146.414062 C 128.855469 146.601562 128.558594 146.761719 128.242188 146.890625 C 127.925781 147.019531 127.601562 147.121094 127.265625 147.1875 C 126.929688 147.253906 126.59375 147.285156 126.253906 147.285156 Z M 126.253906 147.285156 " fill-opacity="1" fill-rule="nonzero"/><path fill="#834bf4" d="M 126.253906 121.289062 L 63.839844 121.289062 C 63.496094 121.289062 63.160156 121.257812 62.824219 121.191406 C 62.488281 121.125 62.164062 121.027344 61.847656 120.894531 C 61.535156 120.765625 61.230469 120.605469 60.949219 120.414062 C 60.664062 120.222656 60.402344 120.011719 60.160156 119.769531 C 59.917969 119.527344 59.703125 119.265625 59.511719 118.980469 C 59.324219 118.699219 59.164062 118.398438 59.035156 118.082031 C 58.90625 117.769531 58.804688 117.441406 58.738281 117.109375 C 58.671875 116.773438 58.640625 116.433594 58.640625 116.09375 C 58.640625 115.75 58.671875 115.410156 58.738281 115.078125 C 58.804688 114.746094 58.90625 114.417969 59.035156 114.101562 C 59.164062 113.785156 59.324219 113.488281 59.511719 113.203125 C 59.703125 112.917969 59.917969 112.65625 60.160156 112.417969 C 60.402344 112.175781 60.664062 111.960938 60.949219 111.769531 C 61.230469 111.582031 61.535156 111.417969 61.847656 111.289062 C 62.164062 111.15625 62.488281 111.058594 62.824219 110.996094 C 63.160156 110.929688 63.496094 110.894531 63.839844 110.894531 L 126.253906 110.894531 C 126.59375 110.894531 126.929688 110.929688 127.265625 110.996094 C 127.601562 111.058594 127.925781 111.15625 128.242188 111.289062 C 128.558594 111.417969 128.855469 111.582031 129.140625 111.769531 C 129.425781 111.960938 129.6875 112.175781 129.929688 112.417969 C 130.167969 112.65625 130.386719 112.917969 130.574219 113.203125 C 130.765625 113.488281 130.925781 113.785156 131.058594 114.101562 C 131.1875 114.417969 131.285156 114.746094 131.351562 115.078125 C 131.417969 115.410156 131.453125 115.75 131.453125 116.09375 C 131.453125 116.433594 131.417969 116.773438 131.351562 117.109375 C 131.285156 117.441406 131.1875 117.769531 131.058594 118.082031 C 130.925781 118.398438 130.765625 118.699219 130.574219 118.980469 C 130.386719 119.265625 130.167969 119.527344 129.929688 119.769531 C 129.6875 120.011719 129.425781 120.222656 129.140625 120.414062 C 128.855469 120.605469 128.558594 120.765625 128.242188 120.894531 C 127.925781 121.027344 127.601562 121.125 127.265625 121.191406 C 126.929688 121.257812 126.59375 121.289062 126.253906 121.289062 Z M 126.253906 121.289062 " fill-opacity="1" fill-rule="nonzero"/><path fill="#834bf4" d="M 126.253906 95.296875 L 89.84375 95.296875 C 89.503906 95.296875 89.164062 95.261719 88.828125 95.195312 C 88.492188 95.128906 88.167969 95.03125 87.855469 94.898438 C 87.539062 94.769531 87.238281 94.605469 86.957031 94.417969 C 86.671875 94.230469 86.410156 94.011719 86.167969 93.773438 C 85.925781 93.53125 85.707031 93.269531 85.519531 92.984375 C 85.328125 92.699219 85.171875 92.402344 85.039062 92.085938 C 84.910156 91.769531 84.808594 91.445312 84.742188 91.109375 C 84.675781 90.777344 84.644531 90.4375 84.644531 90.097656 C 84.644531 89.753906 84.675781 89.414062 84.742188 89.082031 C 84.808594 88.746094 84.910156 88.421875 85.039062 88.105469 C 85.171875 87.792969 85.328125 87.488281 85.519531 87.207031 C 85.707031 86.921875 85.925781 86.660156 86.167969 86.421875 C 86.410156 86.175781 86.671875 85.964844 86.957031 85.773438 C 87.238281 85.582031 87.539062 85.421875 87.855469 85.292969 C 88.167969 85.164062 88.492188 85.0625 88.828125 84.996094 C 89.164062 84.929688 89.503906 84.898438 89.84375 84.898438 L 126.253906 84.898438 C 126.59375 84.898438 126.929688 84.929688 127.265625 84.996094 C 127.601562 85.0625 127.925781 85.164062 128.242188 85.292969 C 128.558594 85.421875 128.855469 85.582031 129.140625 85.773438 C 129.425781 85.964844 129.6875 86.175781 129.929688 86.421875 C 130.167969 86.660156 130.386719 86.921875 130.574219 87.207031 C 130.765625 87.488281 130.925781 87.792969 131.058594 88.105469 C 131.1875 88.421875 131.285156 88.746094 131.351562 89.082031 C 131.417969 89.414062 131.453125 89.753906 131.453125 90.097656 C 131.453125 90.4375 131.417969 90.777344 131.351562 91.109375 C 131.285156 91.445312 131.1875 91.769531 131.058594 92.085938 C 130.925781 92.402344 130.765625 92.699219 130.574219 92.984375 C 130.386719 93.269531 130.167969 93.53125 129.929688 93.773438 C 129.6875 94.011719 129.425781 94.230469 129.140625 94.417969 C 128.855469 94.605469 128.558594 94.769531 128.242188 94.898438 C 127.925781 95.03125 127.601562 95.128906 127.265625 95.195312 C 126.929688 95.261719 126.59375 95.296875 126.253906 95.296875 Z M 126.253906 95.296875 " fill-opacity="1" fill-rule="nonzero"/></svg>