<svg xmlns="http://www.w3.org/2000/svg" xmlns:xlink="http://www.w3.org/1999/xlink" width="250" zoomAndPan="magnify" viewBox="0 0 187.5 187.499992" height="250" preserveAspectRatio="xMidYMid meet" version="1.0"><defs><clipPath id="id1"><path d="M 11.511719 30.5 L 175.671875 30.5 L 175.671875 93 L 11.511719 93 Z M 11.511719 30.5 " clip-rule="nonzero"/></clipPath><clipPath id="id2"><path d="M 11.511719 58 L 175.671875 58 L 175.671875 157.21875 L 11.511719 157.21875 Z M 11.511719 58 " clip-rule="nonzero"/></clipPath></defs><g clip-path="url(#id1)"><path fill="#834bf4" d="M 93.59375 92.808594 L 175.65625 43.386719 L 175.65625 43.171875 C 175.65625 42.339844 175.578125 41.515625 175.417969 40.699219 C 175.257812 39.886719 175.015625 39.089844 174.699219 38.320312 C 174.382812 37.550781 173.992188 36.824219 173.53125 36.132812 C 173.070312 35.441406 172.550781 34.800781 171.960938 34.210938 C 171.375 33.621094 170.738281 33.097656 170.046875 32.636719 C 169.359375 32.171875 168.628906 31.78125 167.863281 31.460938 C 167.101562 31.148438 166.308594 30.902344 165.496094 30.742188 C 164.683594 30.582031 163.863281 30.5 163.035156 30.5 L 24.152344 30.5 C 23.320312 30.5 22.5 30.582031 21.691406 30.742188 C 20.875 30.902344 20.085938 31.148438 19.320312 31.460938 C 18.554688 31.78125 17.828125 32.171875 17.136719 32.636719 C 16.449219 33.097656 15.808594 33.621094 15.226562 34.210938 C 14.636719 34.800781 14.113281 35.441406 13.652344 36.132812 C 13.191406 36.824219 12.804688 37.550781 12.488281 38.320312 C 12.167969 39.089844 11.929688 39.886719 11.769531 40.699219 C 11.605469 41.515625 11.527344 42.339844 11.527344 43.171875 L 11.527344 43.386719 Z M 93.59375 92.808594 " fill-opacity="1" fill-rule="nonzero"/></g><g clip-path="url(#id2)"><path fill="#834bf4" d="M 96.84375 105.625 C 96.351562 105.921875 95.832031 106.148438 95.28125 106.300781 C 94.730469 106.457031 94.167969 106.53125 93.59375 106.53125 C 93.019531 106.53125 92.457031 106.457031 91.90625 106.300781 C 91.355469 106.148438 90.832031 105.921875 90.339844 105.625 L 11.527344 58.164062 L 11.527344 144.546875 C 11.527344 145.378906 11.605469 146.207031 11.769531 147.019531 C 11.929688 147.835938 12.167969 148.628906 12.488281 149.394531 C 12.804688 150.164062 13.191406 150.894531 13.652344 151.585938 C 14.113281 152.28125 14.636719 152.921875 15.226562 153.507812 C 15.808594 154.09375 16.449219 154.621094 17.136719 155.085938 C 17.828125 155.546875 18.554688 155.9375 19.320312 156.253906 C 20.085938 156.574219 20.875 156.8125 21.691406 156.976562 C 22.5 157.140625 23.320312 157.21875 24.152344 157.21875 L 163.035156 157.21875 C 163.863281 157.21875 164.683594 157.140625 165.496094 156.976562 C 166.308594 156.8125 167.101562 156.574219 167.863281 156.253906 C 168.628906 155.9375 169.359375 155.546875 170.046875 155.085938 C 170.738281 154.621094 171.375 154.09375 171.960938 153.507812 C 172.550781 152.921875 173.070312 152.28125 173.53125 151.585938 C 173.992188 150.894531 174.382812 150.164062 174.699219 149.394531 C 175.015625 148.628906 175.257812 147.835938 175.417969 147.019531 C 175.578125 146.207031 175.65625 145.378906 175.65625 144.546875 L 175.65625 58.164062 Z M 96.84375 105.625 " fill-opacity="1" fill-rule="nonzero"/></g></svg>