<svg xmlns="http://www.w3.org/2000/svg" xmlns:xlink="http://www.w3.org/1999/xlink" width="250" zoomAndPan="magnify" viewBox="0 0 187.5 187.499992" height="250" preserveAspectRatio="xMidYMid meet" version="1.0"><defs><clipPath id="id1"><path d="M 31.363281 13.75 L 159.832031 13.75 L 159.832031 179.421875 L 31.363281 179.421875 Z M 31.363281 13.75 " clip-rule="nonzero"/></clipPath></defs><g clip-path="url(#id1)"><path fill="#834bf4" d="M 159.832031 166.90625 C 159.832031 122.699219 131.046875 86.882812 95.597656 86.882812 C 60.148438 86.882812 31.363281 122.699219 31.363281 166.90625 C 31.363281 173.800781 60.148438 179.421875 95.597656 179.421875 C 131.046875 179.421875 159.832031 173.800781 159.832031 166.90625 Z M 95.597656 13.753906 C 114.933594 13.753906 130.597656 29.414062 130.597656 48.742188 C 130.597656 68.078125 114.933594 83.738281 95.597656 83.738281 C 76.257812 83.738281 60.597656 68.078125 60.597656 48.742188 C 60.597656 29.414062 76.257812 13.753906 95.597656 13.753906 Z M 95.597656 13.753906 " fill-opacity="1" fill-rule="evenodd"/></g></svg>